<svg width="19" height="20" viewBox="0 0 19 20" fill="none" xmlns="http://www.w3.org/2000/svg">
<path d="M8.41406 0.342211C8.75574 0.34094 9.09405 0.409752 9.40808 0.544395C9.72212 0.679038 10.0052 0.876652 10.2398 1.12502C10.718 1.62893 10.9641 2.28987 10.9313 2.98596L10.815 5.36643H10.7906V5.86643L11.29 5.89081L11.2912 5.86643L8.41406 0.342211ZM8.41406 0.342211C7.19531 0.342211 6.11719 1.16252 5.79375 2.33674M8.41406 0.342211L5.79375 2.33674M17.0773 11.3781C17.0789 11.0701 17.0021 10.7669 16.8542 10.4967C16.8542 10.4967 16.8542 10.4967 16.8542 10.4967L16.722 10.255L16.9308 10.0738L16.9332 10.0717C17.3296 9.72324 17.5625 9.22179 17.5625 8.6883C17.5625 8.04674 17.1964 7.46298 16.6486 7.12753L16.5284 7.05393H16.3875H9.54353L9.74312 2.92911C9.74313 2.92881 9.74315 2.9285 9.74316 2.9282C9.76551 2.4789 9.56256 2.05905 9.20117 1.78879C8.96314 1.61042 8.67867 1.53205 8.40703 1.53204L8.40372 1.53207C8.07024 1.53428 7.74658 1.64512 7.48176 1.84781C7.21695 2.0505 7.02542 2.33399 6.9362 2.65531L6.93599 2.65606L4.60396 11.1053L4.58594 11.1706V11.2383V17.9672V18.4672H5.08594H14.8195H14.9271L15.0251 18.423C15.68 18.1277 16.1065 17.4778 16.107 16.7546M17.0773 11.3781C17.0769 11.9097 16.845 12.4142 16.4464 12.7614L16.4456 12.7621L16.2368 12.9433L16.3691 13.185C16.5169 13.4551 16.5937 13.7584 16.5922 14.0664M17.0773 11.3781C17.0773 11.3776 17.0773 11.3771 17.0773 11.3766H16.5773L17.0773 11.3794C17.0773 11.379 17.0773 11.3785 17.0773 11.3781ZM16.5922 14.0664C16.5918 14.598 16.3598 15.1025 15.9612 15.4497L15.9605 15.4504L15.7516 15.6315L15.8839 15.8733C16.0318 16.1434 16.1085 16.4466 16.107 16.7546M16.5922 14.0664C16.5922 14.0659 16.5922 14.0654 16.5922 14.0649H16.0922L16.5922 14.0677C16.5922 14.0673 16.5922 14.0668 16.5922 14.0664ZM16.107 16.7546C16.107 16.755 16.107 16.7555 16.107 16.756L15.6072 16.7531H16.107C16.107 16.7536 16.107 16.7541 16.107 16.7546ZM5.79375 2.33674L3.78047 9.62581L5.79375 2.33674ZM18.1383 10.5094L17.6594 10.6531C17.7291 10.8855 17.7652 11.1311 17.7695 11.3829C17.7687 11.9347 17.587 12.465 17.2591 12.8983L17.106 13.1006L17.1789 13.3437C17.2491 13.5777 17.2844 13.8199 17.2844 14.0672C17.2844 14.6205 17.1026 15.1523 16.774 15.5866L16.6208 15.7889L16.6937 16.032C16.7639 16.266 16.7992 16.5082 16.7992 16.7555C16.7992 17.7643 16.1994 18.6733 15.2679 19.0706L15.2651 19.0718C15.1362 19.1277 14.9933 19.1571 14.843 19.1571H0.75C0.611299 19.1571 0.5 19.0458 0.5 18.9071V10.3758C0.5 10.2371 0.611299 10.1258 0.75 10.1258H3.78047H4.16109L4.26242 9.75892L6.2757 2.46986L6.2758 2.46952C6.53938 1.51259 7.41994 0.842211 8.41406 0.842214L8.41592 0.842207C8.68924 0.841191 8.95985 0.896234 9.21105 1.00394C9.46225 1.11164 9.68869 1.26971 9.87639 1.46839L9.87713 1.46918C10.2613 1.87409 10.4581 2.40202 10.4318 2.96194C10.4318 2.9621 10.4318 2.96226 10.4318 2.96242L10.2912 5.84205L10.2656 6.36643H10.7906H16.4109L16.4114 6.36643C16.6049 6.36625 16.7949 6.41777 16.9618 6.51567C17.7643 6.9864 18.25 7.82307 18.25 8.6883C18.25 9.24157 18.0683 9.77335 17.7396 10.2077L18.1383 10.5094ZM1.1875 17.9696V18.4696H1.6875H3.58594H4.08594V17.9696V11.3133V10.8133H3.58594H1.6875H1.1875V11.3133V17.9696Z" fill="#8C8C8C" stroke="black"/>
</svg>
